<svg id="Ebene_1" data-name="Ebene 1" xmlns="http://www.w3.org/2000/svg" xmlns:xlink="http://www.w3.org/1999/xlink" width="150.89" height="50" viewBox="0 0 150.89 50">
  <defs>
    <style>
      .cls-1 {
        fill: #30a3f1;
      }
    </style>
  </defs>
  <g>
    <image width="1024" height="1024" transform="translate(9.95 15) scale(0.02)" xlink:href="../~%20material/Visual_Studio_Code_1.35_icon.svg.png"/>
    <g>
      <path class="cls-1" d="M35,22.22h1.66l1.73,5.05,1.78-5.05h1.6L39,29.36H37.63Z"/>
      <path class="cls-1" d="M42.55,22.22H44v7.14H42.55Z"/>
      <path class="cls-1" d="M46.56,27A1.32,1.32,0,0,0,47,28a1.74,1.74,0,0,0,1.1.3,2,2,0,0,0,.59-.07,1.19,1.19,0,0,0,.39-.2.71.71,0,0,0,.22-.3,1.06,1.06,0,0,0,.06-.37.79.79,0,0,0-.21-.52,1.32,1.32,0,0,0-.77-.36l-.93-.17a4.87,4.87,0,0,1-1-.26,2.09,2.09,0,0,1-.7-.41,1.67,1.67,0,0,1-.44-.63,2.31,2.31,0,0,1-.15-.88,1.87,1.87,0,0,1,.21-.9,2,2,0,0,1,.57-.65,2.68,2.68,0,0,1,.87-.39A4.4,4.4,0,0,1,48,22a4,4,0,0,1,1.3.18,2.26,2.26,0,0,1,.84.48,1.69,1.69,0,0,1,.48.68,3.2,3.2,0,0,1,.2.81l-1.41.18a1.4,1.4,0,0,0-.42-.85,1.51,1.51,0,0,0-1-.26,2.16,2.16,0,0,0-.62.07,1.24,1.24,0,0,0-.4.17.59.59,0,0,0-.21.24.84.84,0,0,0,.17.89,1.55,1.55,0,0,0,.76.31l1,.19a3.37,3.37,0,0,1,1.7.75,2,2,0,0,1,.54,1.48,2.08,2.08,0,0,1-.17.87,2,2,0,0,1-.52.69,2.56,2.56,0,0,1-.87.46,4,4,0,0,1-1.22.16,3.52,3.52,0,0,1-2.23-.62A2.44,2.44,0,0,1,45.05,27Z"/>
      <path class="cls-1" d="M51.81,22.22H53.3v4.25a2.31,2.31,0,0,0,.32,1.35,1.52,1.52,0,0,0,2.14,0,2.32,2.32,0,0,0,.31-1.35V22.22h1.49v4.25a4.08,4.08,0,0,1-.2,1.39,2.41,2.41,0,0,1-.57,1,2.17,2.17,0,0,1-.9.55,4.11,4.11,0,0,1-1.21.17,3.8,3.8,0,0,1-1.21-.18,2.27,2.27,0,0,1-.91-.55,2.48,2.48,0,0,1-.56-1,4.79,4.79,0,0,1-.19-1.4Z"/>
      <path class="cls-1" d="M60.63,22.22h1.42l2.68,7.14h-1.6l-.57-1.65h-2.5l-.57,1.65H58Zm1.54,4.26-.87-2.56-.86,2.56Z"/>
      <path class="cls-1" d="M65.56,22.22h1.49v5.86h3.38l-.16,1.28H65.56Z"/>
      <path class="cls-1" d="M74.69,27a1.32,1.32,0,0,0,.43,1,1.74,1.74,0,0,0,1.1.3,2,2,0,0,0,.59-.07,1.19,1.19,0,0,0,.39-.2.71.71,0,0,0,.22-.3,1.06,1.06,0,0,0,.06-.37.79.79,0,0,0-.21-.52,1.32,1.32,0,0,0-.77-.36l-.93-.17a4.87,4.87,0,0,1-1-.26,2.09,2.09,0,0,1-.7-.41,1.67,1.67,0,0,1-.44-.63,2.31,2.31,0,0,1-.15-.88,1.87,1.87,0,0,1,.21-.9,2,2,0,0,1,.57-.65,2.68,2.68,0,0,1,.87-.39A4.4,4.4,0,0,1,76.08,22a4,4,0,0,1,1.3.18,2.26,2.26,0,0,1,.84.48,1.69,1.69,0,0,1,.48.68,3.2,3.2,0,0,1,.2.81l-1.41.18a1.4,1.4,0,0,0-.42-.85,1.51,1.51,0,0,0-1-.26,2.16,2.16,0,0,0-.62.07,1.24,1.24,0,0,0-.4.17.59.59,0,0,0-.21.24.84.84,0,0,0,.17.89,1.55,1.55,0,0,0,.76.31l1,.19a3.37,3.37,0,0,1,1.7.75A2,2,0,0,1,79,27.36a2.08,2.08,0,0,1-.17.87,2,2,0,0,1-.52.69,2.56,2.56,0,0,1-.87.46,4,4,0,0,1-1.22.16A3.52,3.52,0,0,1,74,28.92,2.44,2.44,0,0,1,73.18,27Z"/>
      <path class="cls-1" d="M81.6,23.51H79.45V22.22h5.8v1.29H83.1v5.85H81.6Z"/>
      <path class="cls-1" d="M86,22.22h1.49v4.25a2.31,2.31,0,0,0,.32,1.35,1.52,1.52,0,0,0,2.14,0,2.32,2.32,0,0,0,.31-1.35V22.22h1.49v4.25a4.08,4.08,0,0,1-.2,1.39,2.41,2.41,0,0,1-.57,1,2.17,2.17,0,0,1-.9.55,4.11,4.11,0,0,1-1.21.17,3.8,3.8,0,0,1-1.21-.18,2.27,2.27,0,0,1-.91-.55,2.48,2.48,0,0,1-.56-1,4.79,4.79,0,0,1-.19-1.4Z"/>
      <path class="cls-1" d="M93.11,22.22h2.67a3.15,3.15,0,0,1,3.47,3.53A4.33,4.33,0,0,1,99,27.31a3,3,0,0,1-1.91,1.82,4.74,4.74,0,0,1-1.56.23H93.11Zm2.45,5.87a2.63,2.63,0,0,0,1-.16,1.58,1.58,0,0,0,.67-.48,1.94,1.94,0,0,0,.37-.73,3.55,3.55,0,0,0,.12-1,3.93,3.93,0,0,0-.1-.94,1.78,1.78,0,0,0-.34-.72,1.57,1.57,0,0,0-.59-.45,2.34,2.34,0,0,0-.9-.16H94.6v4.6Z"/>
      <path class="cls-1" d="M100.48,22.22H102v7.14h-1.49Z"/>
      <path class="cls-1" d="M106.61,29.54a3.61,3.61,0,0,1-1.43-.26,2.88,2.88,0,0,1-1.07-.75,3.4,3.4,0,0,1-.67-1.18,5.19,5.19,0,0,1,0-3.12,3.35,3.35,0,0,1,.68-1.18,3.14,3.14,0,0,1,1.07-.75,4,4,0,0,1,2.85,0,3,3,0,0,1,1.07.75,3.32,3.32,0,0,1,.66,1.18,4.74,4.74,0,0,1,.23,1.56,5,5,0,0,1-.22,1.56,3.23,3.23,0,0,1-.66,1.18,2.81,2.81,0,0,1-1.07.75A3.63,3.63,0,0,1,106.61,29.54Zm0-1.28a1.59,1.59,0,0,0,1.4-.64,3.05,3.05,0,0,0,.46-1.83A3.08,3.08,0,0,0,108,24a1.6,1.6,0,0,0-1.4-.65,1.62,1.62,0,0,0-1.4.65,3.16,3.16,0,0,0-.46,1.82,3.13,3.13,0,0,0,.46,1.83A1.61,1.61,0,0,0,106.6,28.26Z"/>
      <path class="cls-1" d="M119.56,26.89A3.37,3.37,0,0,1,119.3,28a2.61,2.61,0,0,1-.59.84,2.72,2.72,0,0,1-.92.55,3.57,3.57,0,0,1-1.27.2,3.49,3.49,0,0,1-1.42-.27,2.72,2.72,0,0,1-1-.76,3.18,3.18,0,0,1-.63-1.18,5.36,5.36,0,0,1-.21-1.54,5,5,0,0,1,.23-1.56,3.65,3.65,0,0,1,.66-1.18,3.11,3.11,0,0,1,1-.75,3.57,3.57,0,0,1,1.38-.26,3.83,3.83,0,0,1,1.19.17,2.44,2.44,0,0,1,.85.49,2.51,2.51,0,0,1,.55.77,3.85,3.85,0,0,1,.31,1l-1.48.19a2,2,0,0,0-.42-1,1.26,1.26,0,0,0-1-.36,1.48,1.48,0,0,0-1.3.65,3.16,3.16,0,0,0-.45,1.82,3,3,0,0,0,.48,1.83,1.49,1.49,0,0,0,1.27.64,1.35,1.35,0,0,0,1-.35,1.76,1.76,0,0,0,.4-1Z"/>
      <path class="cls-1" d="M123.77,29.54a3.61,3.61,0,0,1-1.43-.26,2.88,2.88,0,0,1-1.07-.75,3.4,3.4,0,0,1-.67-1.18,5.19,5.19,0,0,1,0-3.12,3.35,3.35,0,0,1,.68-1.18,3.14,3.14,0,0,1,1.07-.75,4,4,0,0,1,2.85,0,3,3,0,0,1,1.07.75,3.32,3.32,0,0,1,.66,1.18,4.74,4.74,0,0,1,.23,1.56,5,5,0,0,1-.22,1.56,3.23,3.23,0,0,1-.66,1.18,2.81,2.81,0,0,1-1.07.75A3.63,3.63,0,0,1,123.77,29.54Zm0-1.28a1.59,1.59,0,0,0,1.4-.64,3.05,3.05,0,0,0,.46-1.83,3.08,3.08,0,0,0-.46-1.82,1.6,1.6,0,0,0-1.4-.65,1.62,1.62,0,0,0-1.4.65,3.16,3.16,0,0,0-.46,1.82,3.13,3.13,0,0,0,.46,1.83A1.61,1.61,0,0,0,123.76,28.26Z"/>
      <path class="cls-1" d="M128.39,22.22h2.67a3.15,3.15,0,0,1,3.47,3.53,4.33,4.33,0,0,1-.25,1.56,3,3,0,0,1-1.91,1.82,4.74,4.74,0,0,1-1.56.23h-2.42Zm2.45,5.87a2.63,2.63,0,0,0,1-.16,1.58,1.58,0,0,0,.67-.48,1.94,1.94,0,0,0,.37-.73,3.55,3.55,0,0,0,.12-1,3.93,3.93,0,0,0-.1-.94,1.78,1.78,0,0,0-.34-.72,1.57,1.57,0,0,0-.59-.45,2.34,2.34,0,0,0-.9-.16h-1.18v4.6Z"/>
      <path class="cls-1" d="M135.76,22.22h4.87v1.27h-3.38v1.56h3.18v1.28h-3.18v1.76h3.59l-.15,1.27h-4.93Z"/>
    </g>
  </g>
  <path class="cls-1" d="M145.89,2a3,3,0,0,1,3,3V45a3,3,0,0,1-3,3H5a3,3,0,0,1-3-3V5A3,3,0,0,1,5,2H145.89m0-2H5A5,5,0,0,0,0,5V45a5,5,0,0,0,5,5H145.89a5,5,0,0,0,5-5V5a5,5,0,0,0-5-5Z"/>
</svg>
